<svg width="46" height="47" viewBox="0 0 46 47" fill="none" xmlns="http://www.w3.org/2000/svg">
<path fill-rule="evenodd" clip-rule="evenodd" d="M26.3218 2.03739C25.9332 2.06594 25.7531 2.51737 25.9989 2.81982L27.8261 5.0687C27.8986 5.15799 27.9994 5.21906 28.1116 5.24412C30.836 5.85202 34.0874 7.55679 36.7448 10.8489C39.7411 14.561 41.8424 20.1077 41.8424 28C41.8424 31.1765 41.146 33.9428 40.2042 36.2963C40.0705 36.6306 40.313 37 40.6731 37H43.9391C44.156 37 44.3485 36.8604 44.4127 36.6532C45.3336 33.6831 45.8423 30.4218 45.8423 27C45.8423 13.1929 37.5596 2 27.3423 2C26.9999 2 26.6596 2.01257 26.3218 2.03739Z" fill="#FFFDE3"/>
<path fill-rule="evenodd" clip-rule="evenodd" d="M23.3826 28.5506C21.9387 32.8893 19.5044 39.3338 16.6609 44.5528C16.3001 45.2151 16.749 46.0328 17.503 46.0173C25.5207 45.8522 38.8423 42.1679 38.8423 28C38.8423 13.3005 31.0488 8.63913 26.7671 8.04661C26.4963 8.00915 26.2448 7.88 26.0725 7.6679L22.2474 2.96006L20.0457 0.25028C19.917 0.091937 19.7239 0 19.5199 0C19.1457 0 18.8423 0.303336 18.8423 0.67752V4.78914V8C18.8423 8.55229 18.3948 8.9969 17.8453 9.05282C16.5274 9.18694 14.9163 9.59147 13.4861 10.4349C11.5664 11.5669 9.97238 13.4897 9.84991 16.6104C9.84015 16.859 9.74962 17.102 9.58228 17.2861L0.253184 27.5481C0.000951946 27.8255 -0.079349 28.2232 0.0879541 28.5588C0.787682 29.9623 2.39474 32 4.84234 32C6.06248 32 7.58011 31.4936 9.05597 30.8119C10.5907 30.1029 12.0802 29.2043 13.1431 28.4883C13.5512 28.2133 14.1099 28.2518 14.5473 28.4772C15.0469 28.7345 15.8119 29 16.8423 29C17.9939 29 20.306 27.8396 22.0602 26.8551C22.8648 26.4036 23.8407 27.1553 23.5537 28.0322C23.4983 28.2014 23.4413 28.3743 23.3826 28.5506ZM15 18C17 18 19 16.6104 19 14C19 12.8954 17.9469 12.5 16.8423 12.5C15.3423 12.5 13.4972 14 13.4861 16C13.4799 17.1046 13.8954 18 15 18Z" fill="#FFFDE3"/>
</svg>
