<svg width="53" height="50" viewBox="0 0 53 50" fill="none" xmlns="http://www.w3.org/2000/svg">
<path d="M24 0H0L3.68672 3.91748C5.03433 5.34944 6.0094 7.09062 6.52616 8.98785L12.5217 31L18.065 7.93007C18.1951 7.38846 18.3894 6.86432 18.6438 6.36878L18.8675 5.93308C19.1574 5.3683 19.5228 4.84558 19.9536 4.3793L24 0Z" fill="#FFFDE3"/>
<path fill-rule="evenodd" clip-rule="evenodd" d="M27.9688 0.498607C28.0032 0.22466 28.2239 0 28.5 0H52.3493C52.7865 0 53.0131 0.52155 52.7148 0.84116L47.2928 6.65051C46.7711 7.20939 46.3846 7.88043 46.1629 8.61206L36.9557 38.9958C36.8144 39.4623 36.157 39.4714 36.0029 39.0089L33.9507 32.8522C33.8012 32.4039 33.1705 32.394 33.0071 32.8375L27.0018 49.1378C26.8374 49.5839 26.2017 49.5704 26.0565 49.1176L18.1815 24.5662L21.9543 8.86459C22.01 8.63247 22.0933 8.40784 22.2023 8.19547L22.426 7.75976C22.5502 7.51771 22.7068 7.29369 22.8915 7.09386L26.9379 2.71456C27.5165 2.08834 27.8668 1.31022 27.9688 0.498607Z" fill="#FFFDE3"/>
</svg>
