<svg width="44" height="45" viewBox="0 0 44 45" fill="none" xmlns="http://www.w3.org/2000/svg">
<path d="M0 43.7841V36.4508C0 36.0458 0.317733 35.7175 0.709677 35.7175H4.96774L9.22581 30.5841L3.9069 24.4009C3.67596 24.1324 3.54839 23.7857 3.54839 23.4265V19.5841C3.54839 18.7741 4.18385 18.1175 4.96774 18.1175H9.64153C10.1958 18.1175 10.6452 18.5818 10.6452 19.1546C10.6452 19.4296 10.5394 19.6934 10.3512 19.8879L8.51613 21.7841L22.7097 37.1841L25.2544 34.5546C25.4426 34.3601 25.6979 34.2508 25.9641 34.2508C26.5184 34.2508 26.9677 34.7151 26.9677 35.2879V40.1175C26.9677 40.9275 26.3323 41.5841 25.5484 41.5841H20.4106C20.063 41.5841 19.7275 41.4523 19.4676 41.2137L13.4839 35.7175L8.51613 39.3841V43.7841C8.51613 44.1891 8.1984 44.5175 7.80645 44.5175H0.709677C0.317733 44.5175 0 44.1891 0 43.7841Z" fill="#FFFDE3"/>
<path d="M13.4839 22.5175L34.0645 0.517471H44V10.7841L22 31.3175L18.4516 27.6508L31.03 15.1841L35.4839 9.31747L29.6107 13.7175L17.0323 26.1841L13.4839 22.5175Z" fill="#FFFDE3"/>
</svg>
