<svg width="40" height="49" viewBox="0 0 40 49" fill="none" xmlns="http://www.w3.org/2000/svg">
<path d="M1.28125e-10 26.5175C-9.23934e-06 24.5175 0.499878 12.5175 10.5 12.5175C15.6837 12.5175 16.4803 15.5335 16.5448 17.0987C16.5662 17.6195 16.1003 17.9775 15.5817 17.9256L12.9181 17.6593C12.4478 17.6122 12.1775 18.1871 12.5134 18.5197C14.7125 20.6972 16.0126 21.8388 20 22.0175C23.9874 21.8388 25.2875 20.6972 27.4866 18.5197C27.8225 18.1871 27.5522 17.6122 27.0819 17.6593L24.4183 17.9256C23.8997 17.9775 23.4338 17.6195 23.4552 17.0987C23.5197 15.5335 24.3163 12.5175 29.5 12.5175C39.5001 12.5175 40 24.5175 40 26.5175C40 37.0175 33 48.5175 25 48.5175C23.5633 48.5175 22.9538 48.4882 22.5872 48.3619C21.7382 48.0694 21.0117 47.5175 20.1137 47.5175H19.8863C18.9883 47.5175 18.2618 48.0694 17.4128 48.3619C17.0462 48.4882 16.4367 48.5175 15 48.5175C7 48.5175 1.28125e-10 37.0175 1.28125e-10 26.5175Z" fill="#FFFDE3"/>
<path d="M21.5 15.0175C21.8905 15.408 22.0858 15.9198 22.0858 16.4317C22.0858 16.9435 21.8905 17.4554 21.5 17.8459C20.7189 18.6269 19.4526 18.6269 18.6716 17.8459C18.2809 17.4553 18.0857 16.9432 18.0858 16.4313C18.0859 15.9196 18.2811 15.4079 18.6716 15.0175C19.4526 14.2364 20.7189 14.2364 21.5 15.0175Z" fill="#FFFDE3"/>
<path d="M18.6716 15.0175C19.4526 14.2364 20.7189 14.2364 21.5 15.0175C21.8905 15.408 22.0858 15.9198 22.0858 16.4317C22.0872 11.0212 22.2571 7.52087 23.0494 5.13953C22.6658 5.37905 22.2126 5.51747 21.727 5.51747C20.3463 5.51747 19.227 4.39818 19.227 3.01747C19.227 2.87785 19.2385 2.7409 19.2605 2.60751C17.7649 5.98441 17.7234 12.5658 18.0858 16.4313C18.0859 15.9196 18.2811 15.4079 18.6716 15.0175Z" fill="#FFFDE3"/>
<path fill-rule="evenodd" clip-rule="evenodd" d="M21.727 0.517471C22.573 0.517471 23.3208 0.937643 23.7732 1.58068C24.3402 2.38674 23.8137 3.4025 23.3886 4.29164C23.2623 4.55579 23.1497 4.838 23.0494 5.13953C22.6658 5.37905 22.2126 5.51747 21.727 5.51747C20.3463 5.51747 19.227 4.39818 19.227 3.01747C19.227 2.87785 19.2385 2.7409 19.2605 2.60751C19.8284 1.32531 20.6262 0.517471 21.727 0.517471Z" fill="#FFFDE3"/>
<path d="M15.9905 9.01315C15.7201 1.93726 9.6927 1.53495 3.06657 1.51811C2.76582 1.51735 2.53268 1.7849 2.58005 2.0819C3.73674 9.33481 8.90573 9.51299 15.4992 9.51736C15.7753 9.51754 16.0011 9.28909 15.9905 9.01315Z" fill="#FFFDE3"/>
</svg>
