<svg width="45" height="46" viewBox="0 0 45 46" fill="none" xmlns="http://www.w3.org/2000/svg">
<path fill-rule="evenodd" clip-rule="evenodd" d="M32.7723 44.5672L33.2157 40.133C33.2303 39.9876 33.3077 39.8558 33.4277 39.7723L41.9292 33.8582C43.853 32.5199 45 30.3248 45 27.9813V16.2106C45 14.6616 44.4976 13.1544 43.5682 11.9152L37.5477 3.88788C36.5449 2.55083 35.1102 1.61194 33.4974 1.22341C33.3334 1.18389 33.1692 1.14577 33.0051 1.10765C32.7809 1.05559 32.5566 1.00351 32.333 0.947961C31.1147 0.645249 27.9331 0.0174713 22.5 0.0174713C17.0669 0.0174713 13.8853 0.645249 12.667 0.947961C12.4433 1.00352 12.2192 1.05558 11.995 1.10765C11.8308 1.14577 11.6666 1.18389 11.5026 1.22341C9.88983 1.61194 8.45509 2.55083 7.4523 3.88788L1.43182 11.9152C0.502412 13.1544 0 14.6616 0 16.2106V27.9813C0 30.3248 1.14699 32.5199 3.07079 33.8582L11.5723 39.7723C11.6923 39.8558 11.7697 39.9876 11.7843 40.133L12.2277 44.5672C12.2526 44.8162 12.4573 45.0073 12.7053 45.0171C12.7186 45.0176 12.7313 45.018 12.7445 45.019C13.1272 45.0492 19.1129 45.5175 22.5 45.5175C25.8871 45.5175 31.8728 45.0492 32.2555 45.019C32.2687 45.018 32.2814 45.0176 32.2947 45.0171C32.5427 45.0073 32.7474 44.8162 32.7723 44.5672ZM7.8906 26.6112L10.9962 28.6816C11.3247 28.9006 11.7156 29.0357 12.0974 28.9349C14.5941 28.2751 17.8324 23.8106 18.7786 20.8945C18.9564 20.3467 18.7909 19.7619 18.4261 19.3161L15.5946 15.8553C14.966 15.087 13.869 14.8961 13.0177 15.4068L7.97101 18.4349C7.3686 18.7963 7 19.4473 7 20.1499V24.9471C7 25.6158 7.3342 26.2403 7.8906 26.6112ZM37.1094 26.6112L34.0038 28.6816C33.6753 28.9006 33.2844 29.0357 32.9026 28.9349C30.4059 28.2751 27.1676 23.8106 26.2214 20.8945C26.0436 20.3467 26.2091 19.7619 26.5739 19.3161L29.4054 15.8553C30.034 15.087 31.131 14.8961 31.9823 15.4068L37.029 18.4349C37.6314 18.7963 38 19.4473 38 20.1499V24.9471C38 25.6158 37.6658 26.2403 37.1094 26.6112ZM21.0614 29.4432C21.2615 29.3422 21.9751 29.0004 22.4719 29.0004C22.4812 29.0004 22.4906 29.0005 22.5 29.0007C22.997 29.0132 23.655 29.3484 23.8349 29.4451C23.8667 29.4622 23.8963 29.4826 23.9205 29.5093C24.0027 29.5997 24.0585 29.7204 24.0786 29.8532L25.4636 35.8599C25.506 36.1404 25.3827 36.4161 25.1705 36.5309C25.1391 36.548 25.1041 36.5568 25.0689 36.5627L22.555 36.9864C22.5368 36.9895 22.5184 36.9915 22.5 36.9925C22.4629 36.9946 22.4256 36.9926 22.3888 36.9864L19.875 36.5627C19.8397 36.5568 19.8047 36.548 19.7733 36.5309C19.5611 36.4161 19.4378 36.1404 19.4802 35.8599L20.811 29.8532C20.8307 29.7228 20.8848 29.6042 20.9644 29.5144C20.9914 29.484 21.0252 29.4615 21.0614 29.4432Z" fill="#FFFDE3"/>
</svg>
