<svg width="70" height="74" viewBox="0 0 70 74" fill="none" xmlns="http://www.w3.org/2000/svg">
<path d="M69.6388 35.4774C69.8374 35.2816 69.8374 34.961 69.6388 34.7652L35.351 0.967284C35.1564 0.775401 34.8437 0.775401 34.649 0.967284L0.36128 34.7652C0.162615 34.961 0.162613 35.2816 0.361279 35.4774L20.6481 55.4744C20.7435 55.5684 20.7971 55.6967 20.7971 55.8305V69.4121C20.7971 69.5459 20.8508 69.6742 20.9461 69.7682L25.0186 73.7825C25.3346 74.0939 25.8696 73.8701 25.8696 73.4264V51.8305C25.8696 51.6967 25.8159 51.5684 25.7206 51.4744L9.49171 35.4774C9.29305 35.2816 9.29305 34.961 9.49171 34.7652L34.649 9.96729C34.8437 9.7754 35.1564 9.7754 35.351 9.96729L60.5084 34.7652C60.707 34.961 60.707 35.2816 60.5084 35.4774L44.2795 51.4744C44.1841 51.5684 44.1305 51.6967 44.1305 51.8305V73.4264C44.1305 73.8701 44.6655 74.0939 44.9815 73.7825L49.0539 69.7682C49.1493 69.6742 49.2029 69.5459 49.2029 69.4121V55.8305C49.2029 55.6967 49.2566 55.5684 49.3519 55.4744L69.6388 35.4774Z" fill="#00C8FF"/>
<path fill-rule="evenodd" clip-rule="evenodd" d="M10 58.1213C10 56.1138 11.2851 53.9384 12.8879 52.0375L17.7971 56.8766V63.1213C14.7254 63.1213 10 61.9835 10 58.1213ZM51.3103 39.911C51.3813 40.0965 51.3358 40.3064 51.1944 40.4458L43.4734 48.0566C43.2343 45.4397 41.3195 41.1213 35 41.1213C28.6805 41.1213 26.7657 45.4397 26.5267 48.0566L18.8057 40.4458C18.6642 40.3064 18.6187 40.0965 18.6897 39.911L25.5 22.1213C25.8958 21.0869 28.0849 18.3473 31.6146 17.1708C32.6347 16.8308 33.7669 16.6213 35 16.6213C36.2332 16.6213 37.3653 16.8308 38.3854 17.1708C41.9151 18.3473 44.1042 21.0869 44.5 22.1213L51.3103 39.911ZM28.8696 63.1213V57.1213H41.1305V63.1213H28.8696ZM52.2029 57.0858C52.2029 56.952 52.2566 56.8237 52.3519 56.7297L57.1122 52.0375C58.7149 53.9384 60 56.1138 60 58.1213C60 61.7798 55.7601 62.9937 52.7019 63.1116C52.426 63.1222 52.2029 62.8974 52.2029 62.6213V57.0858Z" fill="#00C8FF"/>
</svg>
