<svg width="56" height="44" viewBox="0 0 56 44" fill="none" xmlns="http://www.w3.org/2000/svg">
<path d="M32.1082 28.7581C32.1082 33.1441 29.5006 36.9243 25.7432 38.6488C24.3496 39.2884 22.7978 39.6452 21.1622 39.6452C18.6829 39.6452 16.3961 38.8253 14.561 37.4433C12.2662 35.7151 10.6775 33.1079 10.3018 30.1256C10.275 29.9135 10.2544 29.6996 10.2402 29.4839C10.2243 29.244 10.2162 29.002 10.2162 28.7581C10.2162 22.7453 15.1169 17.871 21.1622 17.871C25.9281 17.871 29.9827 20.9005 31.4853 25.129C31.5303 25.2556 31.573 25.3833 31.6134 25.512C31.9349 26.5372 32.1082 27.6275 32.1082 28.7581Z" fill="#FFFDE3"/>
<path d="M43.7838 34.5645C43.7838 35.9016 43.5042 37.1737 43 38.3261C41.539 41.6653 38.1923 44 34.2973 44C30.5291 44 27.274 41.8147 25.7432 38.6488C25.1456 37.4129 24.8108 36.0276 24.8108 34.5645C24.8108 30.2806 27.6812 26.6635 31.6134 25.512C32.4644 25.2628 33.3652 25.129 34.2973 25.129C39.5366 25.129 43.7838 29.3534 43.7838 34.5645Z" fill="#FFFDE3"/>
<path d="M14.5946 36.7419C14.5946 36.9785 14.5832 37.2125 14.561 37.4433C14.2063 41.1227 11.0896 44 7.29731 44C3.26712 44 0 40.7505 0 36.7419C0 32.7334 3.26712 29.4839 7.29731 29.4839C8.36835 29.4839 9.3855 29.7134 10.3018 30.1256C12.8333 31.2646 14.5946 33.7987 14.5946 36.7419Z" fill="#FFFDE3"/>
<path d="M25.7432 38.6488C24.3496 39.2884 22.7978 39.6452 21.1622 39.6452C18.6829 39.6452 16.3961 38.8253 14.561 37.4433C14.2063 41.1227 11.0896 44 7.29731 44H34.2973C30.5291 44 27.274 41.8147 25.7432 38.6488Z" fill="#FFFDE3"/>
<path d="M7.29731 29.4839C8.36835 29.4839 9.3855 29.7134 10.3018 30.1256C10.275 29.9135 10.2544 29.6996 10.2402 29.4839H7.29731Z" fill="#FFFDE3"/>
<path d="M31.6134 25.512C32.4644 25.2628 33.3652 25.129 34.2973 25.129H31.4853C31.5303 25.2556 31.573 25.3833 31.6134 25.512Z" fill="#FFFDE3"/>
<path d="M49.6667 9.77778C48.7371 9.77778 47.8543 9.97101 47.0591 10.3181C47.0823 10.1396 47.1002 9.95939 47.1126 9.77778H49.6667Z" fill="#FFFDE3"/>
<path d="M28.5628 6.43355C27.8242 6.22371 27.0424 6.11111 26.2333 6.11111H28.6739C28.6349 6.2177 28.5978 6.32519 28.5628 6.43355Z" fill="#FFFDE3"/>
<path d="M33.6575 17.4944C34.1761 16.4538 34.4667 15.2874 34.4667 14.0556C34.4667 10.4486 31.9755 7.40309 28.5628 6.43355C28.2837 7.29676 28.1333 8.21477 28.1333 9.16667C28.1333 12.8596 30.3965 16.0424 33.6575 17.4944Z" fill="#FFFDE3"/>
<path d="M43.3333 15.8889C43.3333 16.0881 43.3432 16.2851 43.3625 16.4794C45.3542 15.0244 46.733 12.8292 47.0591 10.3181C44.862 11.2771 43.3333 13.4108 43.3333 15.8889Z" fill="#FFFDE3"/>
<path fill-rule="evenodd" clip-rule="evenodd" d="M28.5628 6.43355C27.8242 6.22371 27.0424 6.11111 26.2333 6.11111C21.6862 6.11111 18 9.66796 18 14.0556C18 14.1054 18.0005 14.1552 18.0014 14.2049C19.0207 13.9861 20.0783 13.871 21.1622 13.871C25.7303 13.871 29.8224 15.9129 32.5649 19.1342C33.0952 19.7571 33.575 20.4242 33.9981 21.129H34.2973C35.9809 21.129 37.5942 21.437 39.0825 22H49.6667C53.1645 22 56 19.264 56 15.8889C56 12.5138 53.1645 9.77778 49.6667 9.77778C48.7371 9.77778 47.8543 9.97101 47.0591 10.3181C47.0823 10.1396 47.1002 9.95939 47.1126 9.77778C47.1263 9.57579 47.1333 9.37202 47.1333 9.16667C47.1333 4.10406 42.88 0 37.6333 0C33.497 0 29.978 2.5508 28.6739 6.11111C28.6349 6.2177 28.5978 6.32519 28.5628 6.43355ZM28.5628 6.43355C31.9755 7.40309 34.4667 10.4486 34.4667 14.0556C34.4667 15.2874 34.1761 16.4538 33.6575 17.4944C30.3965 16.0424 28.1333 12.8596 28.1333 9.16667C28.1333 8.21477 28.2837 7.29676 28.5628 6.43355ZM47.0591 10.3181C46.733 12.8292 45.3542 15.0244 43.3625 16.4794C43.3432 16.2851 43.3333 16.0881 43.3333 15.8889C43.3333 13.4108 44.862 11.2771 47.0591 10.3181Z" fill="#FFFDE3"/>
<path d="M34.2973 44H50L43.9874 40.1348C43.372 39.7392 43 39.0577 43 38.3261C41.539 41.6653 38.1923 44 34.2973 44Z" fill="#FFFDE3"/>
</svg>
