<svg width="54" height="50" viewBox="0 0 54 50" fill="none" xmlns="http://www.w3.org/2000/svg">
<path fill-rule="evenodd" clip-rule="evenodd" d="M23.9616 1.06903C23.7875 0.66576 23.2152 0.666934 23.0428 1.07092L4.5 44.5C4.08825 45.3235 2.73461 47.2876 0.532154 48.9706C0.126804 49.2803 0.336347 50 0.846501 50H53.4398C53.9262 50 54.1462 49.3475 53.7865 49.0201C51.8962 47.2993 50.977 45.4564 50.5394 44.579L50.5 44.5L37.4297 14.9707C37.2585 14.584 36.7144 14.5712 36.5252 14.9495L33.4804 21.0392C33.2903 21.4194 32.7426 21.404 32.5742 21.0138L23.9616 1.06903ZM18.248 25C17.8917 25 17.6498 24.638 17.786 24.3088L23.038 11.6165C23.2084 11.2048 23.7916 11.2048 23.962 11.6165L29.214 24.3088C29.3502 24.638 29.1083 25 28.752 25H18.248ZM37.463 25.6366C37.2939 25.2214 36.7061 25.2214 36.537 25.6366L31.7806 37.3114C31.6466 37.6402 31.8885 38 32.2436 38H41.7564C42.1115 38 42.3534 37.6402 42.2194 37.3114L37.463 25.6366Z" fill="#FFFDE3"/>
</svg>
