<svg width="58" height="78" viewBox="0 0 58 78" fill="none" xmlns="http://www.w3.org/2000/svg">
<path d="M22.4892 21.0314H20.7214C20.291 21.0314 19.9089 20.7559 19.7727 20.3476L17.2286 12.7151C17.119 12.3865 16.8259 12.155 16.5442 11.9327C16.4761 11.8789 16.4086 11.8256 16.3445 11.7715C15.3918 10.9682 14.8096 8.38629 14.2172 5.21011C14.1028 4.59678 14.575 4.03137 15.1989 4.03137H23.0007C23.553 4.03137 24.0007 3.58366 24.0007 3.03137V1.03137C24.0007 0.479087 24.4484 0.0313721 25.0007 0.0313721H33.0007C33.553 0.0313721 34.0007 0.479087 34.0007 1.03137V3.03137C34.0007 3.58366 34.4484 4.03137 35.0007 4.03137H42.8025C43.4264 4.03137 43.8986 4.59678 43.7842 5.21011C43.1917 8.38629 42.6095 10.9682 41.6568 11.7715C41.5926 11.8257 41.525 11.8791 41.4567 11.933C41.1751 12.1553 40.8823 12.3865 40.7727 12.7151L38.2286 20.3476C38.0925 20.7559 37.7103 21.0314 37.2799 21.0314H35.5121C34.9554 21.0314 34.5058 21.486 34.5122 22.0427L34.9866 63.8563L38.9419 59.901L50.0942 48.7487C50.4904 48.3525 50.4904 47.7102 50.0942 47.314L38.6691 35.8889L38.5816 28.1928L57.7029 47.314C58.099 47.7102 58.099 48.3525 57.7029 48.7487L39 67.4516L35 71.4516L29.7174 76.7342C29.3212 77.1304 28.6788 77.1304 28.2826 76.7342L23 71.4516L19 67.4516L0.297137 48.7487C-0.0990458 48.3525 -0.0990458 47.7102 0.297137 47.314L19.4183 28.1928L19.3309 35.8889L7.90581 47.314C7.50963 47.7102 7.50963 48.3525 7.90581 48.7487L19.058 59.9009L23.0133 63.8562L23.4892 22.0427C23.4955 21.486 23.046 21.0314 22.4892 21.0314Z" fill="#00C8FF"/>
</svg>
