<svg width="46" height="35" viewBox="0 0 46 35" fill="none" xmlns="http://www.w3.org/2000/svg">
<path fill-rule="evenodd" clip-rule="evenodd" d="M0 14.9417V9.7902C0 4.66901 4.02944 0.517471 9 0.517471H37C41.9706 0.517471 46 4.66901 46 9.7902V14.9417H32.8478L31.9783 19.0629H45L42 34.5175H4L1 19.0629H14.0217L13.1522 14.9417H0ZM17.8027 11.8508C18.8401 10.0031 20.7792 8.7599 23 8.7599C25.2208 8.7599 27.1599 10.0031 28.1973 11.8508C28.7078 12.7601 29 13.8157 29 14.9417C29 16.525 28.4223 17.9692 27.4722 19.0629C27.0128 19.5918 26.4663 20.0386 25.856 20.3796L27 28.3357H19L20.144 20.3796C19.5337 20.0386 18.9872 19.5918 18.5278 19.0629C17.5777 17.9692 17 16.525 17 14.9417C17 13.8157 17.2922 12.7601 17.8027 11.8508Z" fill="#FFFDE3"/>
</svg>
